<?xml version="1.0" encoding="utf-8"?>
<!-- Generator: Adobe Illustrator 19.0.0, SVG Export Plug-In . SVG Version: 6.00 Build 0)  -->
<svg version="1.1" id="Layer_1" xmlns="http://www.w3.org/2000/svg" xmlns:xlink="http://www.w3.org/1999/xlink" x="0px" y="0px"
	 viewBox="0 0 508 43" style="enable-background:new 0 0 508 43;" xml:space="preserve">
<style type="text/css">
	.st0{fill:#CCCCCC;}
</style>
<g id="XMLID_41_">
	<path id="XMLID_42_" class="st0" d="M18.2,0.6L29,31.4c0.6,1.6,1.1,2.8,1.6,3.5c0.5,0.7,1,1.2,1.5,1.4c0.5,0.2,1.1,0.3,1.8,0.4V37
		H22v-0.4c1.2,0,2.1-0.1,2.8-0.3c0.7-0.2,1-0.8,1-1.9c0-0.6-0.2-1.3-0.5-2.2c-0.1-0.1-0.1-0.2-0.1-0.3L22,22.4H9.6l-2.9,8.8
		c-0.4,1.2-0.6,2.2-0.6,2.9c0,1,0.3,1.7,0.8,2c0.5,0.3,1.2,0.5,2.1,0.5V37H0.6v-0.4c1.2-0.1,2.2-0.6,2.9-1.4c0.7-0.8,1.4-2,1.9-3.7
		l10.2-31H18.2z M10,21.1h11.5L15.6,4h-0.1L10,21.1z"/>
	<path id="XMLID_45_" class="st0" d="M42.5,36.6H43c0.9,0,1.7-0.3,2.3-1c0.7-0.7,1-1.7,1-2.9V5.5C46.3,4,46,3,45.2,2.4
		s-1.7-0.9-2.7-0.9V1H54v0.4c-1,0-1.9,0.3-2.7,0.9c-0.8,0.6-1.2,1.6-1.2,3.1v26.2c0,1.6,0.4,2.6,1.2,3.2c0.8,0.6,2.1,0.9,3.8,0.9
		h3.1c1.4,0,2.4-0.2,3.2-0.5c0.8-0.3,1.4-0.8,1.9-1.5c0.5-0.7,1-1.6,1.4-2.8h0.4L63.9,37H42.5V36.6z"/>
	<path id="XMLID_47_" class="st0" d="M90.1,0.6l10.8,30.8c0.6,1.6,1.1,2.8,1.6,3.5c0.5,0.7,1,1.2,1.5,1.4c0.5,0.2,1.1,0.3,1.8,0.4
		V37H93.9v-0.4c1.2,0,2.1-0.1,2.8-0.3c0.7-0.2,1-0.8,1-1.9c0-0.6-0.2-1.3-0.5-2.2c-0.1-0.1-0.1-0.2-0.1-0.3l-3.2-9.5H81.5l-2.9,8.8
		c-0.4,1.2-0.6,2.2-0.6,2.9c0,1,0.3,1.7,0.8,2c0.5,0.3,1.2,0.5,2.1,0.5V37h-8.4v-0.4c1.2-0.1,2.2-0.6,2.9-1.4c0.7-0.8,1.4-2,1.9-3.7
		l10.2-31H90.1z M81.9,21.1h11.5L87.5,4h-0.1L81.9,21.1z"/>
	<path id="XMLID_50_" class="st0" d="M152.5,1v0.4c-0.7,0.1-1.2,0.2-1.5,0.2c-0.3,0.1-0.6,0.2-1,0.5c-0.6,0.4-0.9,0.8-1,1.2
		c-0.1,0.4-0.2,1-0.3,2c0,0.1,0,0.3,0,0.4l1.2,26.7c0,1.1,0.3,2.1,0.8,2.9c0.5,0.8,1.6,1.2,3.3,1.2V37h-11.6v-0.4
		c1.5-0.2,2.6-0.6,3.1-1.3c0.5-0.7,0.8-1.9,0.7-3.4L145,4.3h-0.1L132.2,37l-12-31.5h-0.1l-1.3,25.5c-0.1,1.4,0,2.5,0.3,3.3
		c0.2,0.8,0.6,1.3,1.1,1.7c0.5,0.3,1.3,0.6,2.3,0.7V37h-9.1v-0.4c1.2,0,2-0.3,2.6-0.8c0.6-0.5,1-1.2,1.2-2c0.2-0.8,0.3-1.9,0.4-3.3
		l1.4-26.4c0-0.1-0.1-0.3-0.3-0.5c-0.2-0.3-0.4-0.5-0.7-0.8c-0.3-0.3-0.6-0.5-0.8-0.6c-0.6-0.3-1-0.5-1.4-0.6
		c-0.4-0.1-1-0.1-1.7-0.2V1h8.3l11.1,29.4L144.9,1H152.5z"/>
	<path id="XMLID_52_" class="st0" d="M163.3,1.5V1h21.4v5.7h-0.3c0-3-2-4.5-6.1-4.5h-7.5v16.3h6.6c1.3,0,2.5-0.2,3.5-0.6
		c1-0.4,1.6-1.4,1.8-2.9h0.4v8.2h-0.4c-0.1-0.9-0.4-1.6-0.8-2.1c-0.4-0.5-0.8-0.8-1.2-1c-0.4-0.2-0.8-0.2-1.1-0.2
		c-0.6-0.1-1.2-0.1-1.8-0.1h-6.9v12.8c0,1,0.2,1.8,0.5,2.5c0.4,0.7,1.2,1,2.6,1h5.3c1.3,0,2.3-0.2,3.2-0.6c0.8-0.4,1.5-0.9,2-1.6
		c0.5-0.7,0.9-1.5,1.2-2.4h0.3l-1.2,5.6h-21.4v-0.4h0.5c0.8,0,1.5-0.3,2.2-0.9c0.7-0.6,1.1-1.6,1.1-3V5.6c0-1.1-0.2-2.1-0.7-2.9
		c-0.5-0.8-1.4-1.2-2.6-1.2H163.3z"/>
	<path id="XMLID_54_" class="st0" d="M195.4,1.6h-0.5V1h12.5c2,0,3.7,0.3,5.1,0.9c1.4,0.6,2.5,1.4,3.2,2.4c0.8,1,1.3,2,1.7,3
		c0.3,1.1,0.5,2.1,0.5,3.1c0,1.3-0.3,2.6-0.8,3.7c-0.5,1.2-1.4,2.2-2.5,3.1c-1.1,0.9-2.5,1.4-4.2,1.8v0.1c2.1,1,4.1,3.1,6,6.2
		l3.2,5.5c1.5,2.5,2.6,4,3.5,4.7c0.9,0.7,1.8,1,2.6,1.1V37h-6.5c-0.3-0.4-0.5-0.7-0.8-1c-0.2-0.3-0.5-0.7-0.8-1.1
		c-0.2-0.2-0.4-0.6-0.7-1.1c-0.3-0.5-0.5-0.8-0.6-0.8l-4.3-7.1c-0.9-1.4-1.7-2.6-2.6-3.5s-1.7-1.6-2.5-1.9s-1.5-0.6-2.1-0.7
		c-0.6-0.1-1.4-0.1-2.2-0.1v13.2c0,2.6,1.3,3.9,3.9,4V37h-11.5v-0.4c0.7,0,1.4-0.2,1.9-0.4c0.6-0.2,1-0.6,1.4-1.2
		c0.4-0.6,0.5-1.4,0.5-2.3V5.5c0-1.4-0.4-2.4-1-3C197,1.8,196.3,1.6,195.4,1.6z M202.5,18.5h2.1c2.1,0,3.9-0.3,5.3-0.9
		c1.4-0.6,2.4-1.5,3-2.6c0.6-1.1,0.9-2.6,0.9-4.2c0-1.4-0.3-2.7-0.8-4.1c-0.6-1.3-1.5-2.4-2.8-3.3C208.8,2.4,207,2,204.7,2
		c-0.9,0-1.7,0.1-2.2,0.2V18.5z"/>
	<path id="XMLID_57_" class="st0" d="M245.5,1v0.4c-1.1,0-2,0.3-2.7,0.9c-0.7,0.6-1.1,1.6-1.1,3v27.3c0,1.4,0.4,2.4,1.2,3
		c0.8,0.6,1.7,0.9,2.7,0.9V37h-11.4v-0.4c1,0,1.9-0.3,2.7-0.9s1.1-1.6,1.1-3V5.4c0-1.5-0.4-2.5-1.1-3.1c-0.8-0.6-1.7-0.8-2.7-0.8V1
		H245.5z"/>
	<path id="XMLID_59_" class="st0" d="M287.9,9.1h-0.4c-0.3-1.8-1.1-3.2-2.5-4.5s-2.9-2.1-4.6-2.7c-1.7-0.6-3.4-0.8-4.9-0.8
		c-2.1,0-4,0.4-5.8,1.3c-1.8,0.9-3.4,2.1-4.7,3.7s-2.3,3.5-3.1,5.7s-1.1,4.6-1.1,7.2c0,2.5,0.4,4.9,1.1,7c0.7,2.2,1.7,4,3.1,5.6
		c1.4,1.6,2.9,2.8,4.7,3.6c1.8,0.8,3.8,1.2,6,1.2c1.8,0,3.8-0.4,6-1.1c2.2-0.7,4.2-2,5.9-3.7v1.4c-2.2,1.7-4.1,2.9-5.9,3.7
		c-1.8,0.8-4,1.2-6.7,1.2c-2.8,0-5.4-0.5-7.8-1.6c-2.3-1-4.3-2.4-5.9-4.2s-2.8-3.7-3.7-5.9s-1.2-4.5-1.2-6.8c0-3.5,0.9-6.8,2.6-9.8
		c1.7-3,4.1-5.4,7-7.1c2.9-1.7,6.1-2.6,9.6-2.6c2.1,0,4.4,0.3,6.8,1l2.5,0.7c0.5,0.1,0.9,0.1,1.2,0.1c0.6,0,1.1-0.1,1.3-0.3
		c0.2-0.2,0.4-0.5,0.5-1h0.4L287.9,9.1z"/>
	<path id="XMLID_61_" class="st0" d="M314,0.6l10.8,30.8c0.6,1.6,1.1,2.8,1.6,3.5c0.5,0.7,1,1.2,1.5,1.4c0.5,0.2,1.1,0.3,1.8,0.4V37
		h-11.7v-0.4c1.2,0,2.1-0.1,2.8-0.3c0.7-0.2,1-0.8,1-1.9c0-0.6-0.2-1.3-0.5-2.2c-0.1-0.1-0.1-0.2-0.1-0.3l-3.2-9.5h-12.5l-2.9,8.8
		c-0.4,1.2-0.6,2.2-0.6,2.9c0,1,0.3,1.7,0.8,2c0.5,0.3,1.2,0.5,2.1,0.5V37h-8.4v-0.4c1.2-0.1,2.2-0.6,2.9-1.4c0.7-0.8,1.4-2,1.9-3.7
		l10.2-31H314z M305.8,21.1h11.5L311.4,4h-0.1L305.8,21.1z"/>
	<path id="XMLID_64_" class="st0" d="M375.5,1v0.4c-0.9,0.1-1.6,0.3-2.2,0.5c-0.5,0.2-0.9,0.7-1.2,1.4c-0.3,0.7-0.4,1.7-0.4,3v31.5
		h-0.2L343.8,7.1v22.1c0,1.8,0.1,3.2,0.2,4.1c0.1,0.9,0.4,1.5,0.6,1.9c0.6,0.8,1.7,1.3,3.1,1.4V37h-9v-0.4c1,0,1.8-0.3,2.4-0.6
		c0.6-0.4,1-1.1,1.2-2.1c0.2-1,0.4-2.6,0.4-4.6V5.8l-1.2-1.3c-1.1-1.2-1.9-2-2.5-2.3s-1.4-0.6-2.4-0.7V1h6.8l27.2,30.5V8.3
		c0-1.7-0.1-3-0.2-3.9c-0.1-0.9-0.5-1.6-1.1-2.1c-0.6-0.5-1.5-0.8-2.8-0.9V1H375.5z"/>
	<path id="XMLID_66_" class="st0" d="M408.2,36.6h0.5c0.9,0,1.7-0.3,2.3-1c0.7-0.7,1-1.7,1-2.9V5.5c0-1.5-0.4-2.5-1.1-3.1
		c-0.8-0.6-1.7-0.9-2.7-0.9V1h11.5v0.4c-1,0-1.9,0.3-2.7,0.9c-0.8,0.6-1.2,1.6-1.2,3.1v26.2c0,1.6,0.4,2.6,1.2,3.2
		c0.8,0.6,2.1,0.9,3.8,0.9h3.1c1.4,0,2.4-0.2,3.2-0.5c0.8-0.3,1.4-0.8,1.9-1.5c0.5-0.7,1-1.6,1.4-2.8h0.4l-1.4,5.9h-21.4V36.6z"/>
	<path id="XMLID_68_" class="st0" d="M439.3,1.5V1h21.4v5.7h-0.3c0-3-2-4.5-6.1-4.5h-7.5v16.3h6.6c1.3,0,2.5-0.2,3.5-0.6
		c1-0.4,1.6-1.4,1.8-2.9h0.4v8.2h-0.4c-0.1-0.9-0.4-1.6-0.8-2.1c-0.4-0.5-0.8-0.8-1.2-1c-0.4-0.2-0.8-0.2-1.1-0.2
		c-0.6-0.1-1.2-0.1-1.8-0.1h-6.9v12.8c0,1,0.2,1.8,0.5,2.5c0.4,0.7,1.2,1,2.6,1h5.3c1.3,0,2.3-0.2,3.2-0.6c0.8-0.4,1.5-0.9,2-1.6
		c0.5-0.7,0.9-1.5,1.2-2.4h0.3l-1.2,5.6h-21.4v-0.4h0.5c0.8,0,1.5-0.3,2.2-0.9c0.7-0.6,1.1-1.6,1.1-3V5.6c0-1.1-0.2-2.1-0.7-2.9
		c-0.5-0.8-1.4-1.2-2.6-1.2H439.3z"/>
	<path id="XMLID_70_" class="st0" d="M504,8.5h-0.4c-0.5-2.3-1.9-4.2-4.2-5.5s-4.8-1.9-7.7-1.9c-1.5,0-3.1,0.2-4.8,0.7
		c-1.7,0.5-3.4,1.3-5,2.5c-1.6,1.2-3,3-4.1,5.3s-1.6,5.2-1.6,8.8c0,5.6,1.3,10.1,3.9,13.4c2.6,3.4,6.8,5,12.6,5c2.3,0,4-0.2,5-0.5
		c1.1-0.3,1.8-0.7,2.1-1.3c0.3-0.5,0.5-1.3,0.5-2.2v-6.6c0-1.6-0.3-2.6-1-3.1c-0.7-0.5-1.7-0.8-3-1v-0.4h11.7v0.4
		c-1.1,0.1-1.9,0.3-2.5,0.7c-0.6,0.4-1,0.8-1.2,1.4c-0.2,0.6-0.3,1.3-0.3,2.2v10c-3.6,1-7.3,1.4-11.1,1.4c-2,0-3.9-0.2-5.8-0.5
		c-1.9-0.3-3.9-1-6-2.2c-2.1-1.1-3.9-2.8-5.5-5c-2.4-3.3-3.6-7-3.6-11.2c0-2.4,0.5-4.8,1.4-7.1c0.9-2.3,2.2-4.3,3.9-6.2
		c1.7-1.8,3.8-3.2,6.2-4.3c2.5-1,5.2-1.6,8.2-1.6c1.2,0,2.3,0.1,3.4,0.2c1.1,0.2,2.8,0.5,5,0.9c0.9,0.2,1.5,0.3,1.9,0.3
		c0.8,0,1.4-0.4,1.8-1.2h0.4V8.5z"/>
</g>
</svg>
